<svg width="43" height="44" viewBox="0 0 43 44" fill="none" xmlns="http://www.w3.org/2000/svg">
<path d="M18.9444 0.969887C20.3486 0.675739 21.7986 0.676718 23.2023 0.972762C24.7548 1.30051 26.2354 2.13426 29.5345 4.02026L32.8163 5.89332C36.147 7.79514 37.6305 8.65476 38.7014 9.83495C39.6686 10.8991 40.4 12.1556 40.8476 13.5221C41.3421 15.0315 41.3536 16.7364 41.3536 20.5558V22.978C41.3536 26.819 41.3436 28.534 40.8433 30.0505C40.3912 31.4229 39.6528 32.6835 38.677 33.7492C37.596 34.9308 36.101 35.789 32.7401 37.6851L29.4684 39.5323C26.1923 41.3809 24.7232 42.1988 23.1836 42.5194C21.7922 42.8091 20.356 42.8091 18.9646 42.5194C17.425 42.2003 15.9544 41.3838 12.6784 39.538L9.37213 37.675C6.00838 35.779 4.51194 34.9222 3.4295 33.7406C2.45234 32.6743 1.71295 31.4126 1.26031 30.039C0.7615 28.5225 0.75 26.8061 0.75 22.9622V20.5587C0.75 16.7335 0.760062 15.0243 1.256 13.5149C1.70487 12.1453 2.43877 10.8862 3.40937 9.82057C4.48462 8.64182 5.971 7.78364 9.30888 5.88326L12.6065 4.00732C15.9099 2.12707 17.3919 1.2962 18.9444 0.969887Z" stroke="#575B7B" stroke-width="1.5"/>
<path d="M25.1486 17.3961C25.5633 17.3961 25.8999 17.7327 25.8999 18.1486V24.5323C25.8891 24.7246 25.8051 24.9054 25.6652 25.0377C25.5252 25.17 25.34 25.2438 25.1474 25.2438C24.9548 25.2438 24.7695 25.17 24.6296 25.0377C24.4896 24.9054 24.4056 24.7246 24.3948 24.5323V19.9652L17.1657 27.1939C17.0231 27.327 16.8342 27.3994 16.6391 27.396C16.4441 27.3926 16.2579 27.3135 16.12 27.1754C15.9821 27.0374 15.9032 26.8512 15.9 26.6561C15.8968 26.461 15.9695 26.2723 16.1027 26.1297L23.3318 18.9011H18.7621C18.6632 18.901 18.5654 18.8815 18.4741 18.8436C18.3829 18.8057 18.2999 18.7502 18.2301 18.6803C18.1603 18.6103 18.1049 18.5274 18.0672 18.436C18.0294 18.3447 18.01 18.2468 18.0101 18.148C18.0102 18.0492 18.0297 17.9514 18.0676 17.8601C18.1055 17.7688 18.161 17.6859 18.231 17.6161C18.3009 17.5463 18.3839 17.4909 18.4752 17.4532C18.5666 17.4154 18.6644 17.396 18.7633 17.3961H25.1486Z" fill="#575B7B"/>
</svg>
