<svg width="97" height="40" viewBox="0 0 97 40" fill="none" xmlns="http://www.w3.org/2000/svg">
<rect width="97" height="40" rx="11" fill="#E0E3F0"/>
<path d="M18.1311 25V15.805H14.6061V14.125H23.5761V15.805H20.0511V25H18.1311ZM30.2413 25H28.4413C28.3813 24.61 28.3513 24.28 28.3513 23.935C27.8113 24.775 26.9263 25.195 25.6063 25.195C24.0913 25.195 22.8313 24.325 22.8313 22.855C22.8313 20.92 25.0063 20.32 28.2613 20.005V19.825C28.2613 18.565 27.5563 18.1 26.5963 18.1C25.6063 18.1 24.9913 18.61 24.9163 19.51H23.1613C23.2963 17.845 24.6463 16.735 26.6113 16.735C28.8613 16.735 30.0163 17.755 30.0163 20.095V21.91C30.0163 23.17 30.0913 24.25 30.2413 25ZM28.3363 21.625V21.235C26.1463 21.445 24.7363 21.76 24.7363 22.765C24.7363 23.44 25.2913 23.89 26.1313 23.89C27.3013 23.89 28.3363 23.365 28.3363 21.625ZM32.1025 25V14.125H33.8875V25H32.1025ZM36.0429 25V14.125H37.8279V20.35L40.8729 16.93H43.0329L40.0329 20.185L43.3779 25H41.2479L38.8179 21.49L37.8279 22.555V25H36.0429ZM51.3976 25H50.1826C48.4726 25 47.9926 24.64 47.9926 22.885V18.28H46.7176V16.93H47.9926V14.83H49.7776V16.93H51.3976V18.28H49.7776V22.615C49.7776 23.425 49.9126 23.62 50.7076 23.62H51.3976V25ZM56.4139 25.195C54.3889 25.195 52.3639 23.89 52.3639 20.965C52.3639 18.04 54.3889 16.75 56.4139 16.75C58.4239 16.75 60.4489 18.04 60.4489 20.965C60.4489 23.89 58.4239 25.195 56.4139 25.195ZM56.4139 23.725C57.5539 23.725 58.5739 22.945 58.5739 20.965C58.5739 19 57.5389 18.235 56.4139 18.235C55.2739 18.235 54.2389 19 54.2389 20.965C54.2389 22.945 55.2589 23.725 56.4139 23.725ZM70.5702 25V23.86C70.1052 24.64 69.4002 25.195 68.1102 25.195C66.1302 25.195 65.4402 23.95 65.4402 21.97V16.93H67.2252V21.49C67.2252 22.705 67.3752 23.725 68.7552 23.725C69.9552 23.725 70.5702 22.93 70.5702 21.295V16.93H72.3702V25H70.5702ZM76.9847 19.975L78.2597 20.215C79.9247 20.53 81.0647 21.1 81.0647 22.6C81.0647 24.28 79.5347 25.195 77.5397 25.195C75.4247 25.195 74.0897 23.98 73.8947 22.39H75.6647C75.8747 23.32 76.5047 23.8 77.5697 23.8C78.5447 23.8 79.3097 23.425 79.3097 22.78C79.3097 22.135 78.7097 21.835 77.8097 21.67L76.5197 21.43C75.2597 21.19 74.1047 20.59 74.1047 19.165C74.1047 17.62 75.6497 16.75 77.5097 16.75C79.2797 16.75 80.6597 17.65 80.9297 19.285H79.1747C78.9797 18.46 78.2747 18.16 77.3897 18.16C76.5947 18.16 75.8447 18.445 75.8447 19.09C75.8447 19.585 76.2347 19.84 76.9847 19.975Z" fill="#442599"/>
</svg>
