<svg width="112" height="40" viewBox="0 0 112 40" fill="none" xmlns="http://www.w3.org/2000/svg">
<rect width="111.78" height="40" rx="11" fill="#2D1866"/>
<path d="M21.6004 19.6899V23.5938C21.4686 23.7891 21.2587 24.0088 20.9706 24.2529C20.6825 24.4922 20.2845 24.7021 19.7767 24.8828C19.2738 25.0586 18.6244 25.1465 17.8285 25.1465C17.1791 25.1465 16.5809 25.0342 16.034 24.8096C15.4921 24.5801 15.0209 24.248 14.6205 23.8135C14.225 23.374 13.9173 22.8418 13.6976 22.2168C13.4828 21.5869 13.3754 20.874 13.3754 20.0781V19.2505C13.3754 18.4546 13.4681 17.7441 13.6537 17.1191C13.8441 16.4941 14.1224 15.9644 14.4886 15.5298C14.8548 15.0903 15.3041 14.7583 15.8363 14.5337C16.3685 14.3042 16.9789 14.1895 17.6673 14.1895C18.4828 14.1895 19.1639 14.3311 19.7108 14.6143C20.2626 14.8926 20.6922 15.2783 20.9999 15.7715C21.3124 16.2646 21.5126 16.8262 21.6004 17.4561H20.1869C20.1234 17.0703 19.9964 16.7188 19.806 16.4014C19.6205 16.084 19.3544 15.8301 19.0077 15.6396C18.661 15.4443 18.2142 15.3467 17.6673 15.3467C17.1742 15.3467 16.7469 15.437 16.3856 15.6177C16.0243 15.7983 15.7264 16.0571 15.4921 16.394C15.2577 16.731 15.0819 17.1387 14.9647 17.6172C14.8524 18.0957 14.7962 18.6353 14.7962 19.2358V20.0781C14.7962 20.6934 14.8671 21.2427 15.0087 21.7261C15.1551 22.2095 15.3627 22.6221 15.6312 22.9639C15.8998 23.3008 16.2196 23.5571 16.5907 23.7329C16.9667 23.9087 17.3817 23.9966 17.8358 23.9966C18.3387 23.9966 18.7464 23.9551 19.0589 23.8721C19.3714 23.7842 19.6156 23.6816 19.7914 23.5645C19.9671 23.4424 20.1014 23.3276 20.1942 23.2202V20.8325H17.7259V19.6899H21.6004ZM27.0277 25.1465C26.4759 25.1465 25.9754 25.0537 25.5262 24.8682C25.0819 24.6777 24.6986 24.4116 24.3763 24.0698C24.0589 23.728 23.8148 23.3228 23.6439 22.854C23.473 22.3853 23.3876 21.8726 23.3876 21.3159V21.0083C23.3876 20.3638 23.4828 19.79 23.6732 19.2871C23.8636 18.7793 24.1224 18.3496 24.4496 17.998C24.7767 17.6465 25.1478 17.3804 25.5629 17.1997C25.9779 17.019 26.4076 16.9287 26.8519 16.9287C27.4183 16.9287 27.9066 17.0264 28.3168 17.2217C28.7318 17.417 29.0712 17.6904 29.3348 18.042C29.5985 18.3887 29.7938 18.7988 29.9208 19.2725C30.0477 19.7412 30.1112 20.2539 30.1112 20.8105L30.1112 21.4185L24.1932 21.4185V20.3125L28.7562 20.3125V20.21C28.7367 19.8584 28.6634 19.5166 28.5365 19.1846C28.4144 18.8525 28.2191 18.5791 27.9505 18.3643C27.682 18.1494 27.3158 18.042 26.8519 18.042C26.5443 18.042 26.2611 18.1079 26.0023 18.2397C25.7435 18.3667 25.5213 18.5571 25.3358 18.811C25.1503 19.0649 25.0062 19.375 24.9037 19.7412C24.8011 20.1074 24.7499 20.5298 24.7499 21.0083V21.3159C24.7499 21.6919 24.8011 22.0459 24.9037 22.3779C25.0111 22.7051 25.1649 22.9932 25.3651 23.2422C25.5702 23.4912 25.8168 23.6865 26.1048 23.8281C26.3978 23.9697 26.7298 24.0405 27.1009 24.0405C27.5795 24.0405 27.9847 23.9429 28.3168 23.7476C28.6488 23.5522 28.9393 23.291 29.1883 22.9639L30.0087 23.6157C29.8378 23.8745 29.6205 24.1211 29.3568 24.3555C29.0931 24.5898 28.7684 24.7803 28.3827 24.9268C28.0018 25.0732 27.5502 25.1465 27.0277 25.1465ZM35.0111 17.0752V18.1152H30.7264V17.0752H35.0111ZM32.1766 15.1489H33.5316V23.0371C33.5316 23.3057 33.5731 23.5083 33.6561 23.645C33.7391 23.7817 33.8465 23.8721 33.9784 23.916C34.1102 23.96 34.2518 23.9819 34.4032 23.9819C34.5155 23.9819 34.6327 23.9722 34.7547 23.9526C34.8817 23.9282 34.9769 23.9087 35.0404 23.894L35.0477 25C34.9403 25.0342 34.7987 25.0659 34.6229 25.0952C34.452 25.1294 34.2445 25.1465 34.0004 25.1465C33.6683 25.1465 33.3631 25.0806 33.0848 24.9487C32.8065 24.8169 32.5843 24.5972 32.4183 24.2896C32.2572 23.9771 32.1766 23.5571 32.1766 23.0298V15.1489ZM44.994 23.645V19.5654C44.994 19.2529 44.9305 18.9819 44.8036 18.7524C44.6815 18.5181 44.496 18.3374 44.2469 18.2104C43.9979 18.0835 43.6903 18.02 43.3241 18.02C42.9823 18.02 42.682 18.0786 42.4232 18.1958C42.1693 18.313 41.9691 18.4668 41.8226 18.6572C41.681 18.8477 41.6102 19.0527 41.6102 19.2725H40.2552C40.2552 18.9893 40.3285 18.7085 40.475 18.4302C40.6214 18.1519 40.8314 17.9004 41.1048 17.6758C41.3832 17.4463 41.7152 17.2656 42.1009 17.1338C42.4916 16.9971 42.9261 16.9287 43.4046 16.9287C43.9808 16.9287 44.4886 17.0264 44.9281 17.2217C45.3724 17.417 45.7191 17.7124 45.9681 18.1079C46.222 18.4985 46.349 18.9893 46.349 19.5801V23.2715C46.349 23.5352 46.371 23.8159 46.4149 24.1138C46.4637 24.4116 46.5345 24.668 46.6273 24.8828V25H45.2137C45.1454 24.8438 45.0917 24.6362 45.0526 24.3774C45.0135 24.1138 44.994 23.8696 44.994 23.645ZM45.2284 20.1953L45.243 21.1475H43.8734C43.4877 21.1475 43.1434 21.1792 42.8407 21.2427C42.5379 21.3013 42.284 21.3916 42.079 21.5137C41.8739 21.6357 41.7176 21.7896 41.6102 21.9751C41.5028 22.1558 41.4491 22.3682 41.4491 22.6123C41.4491 22.8613 41.5052 23.0884 41.6175 23.2935C41.7298 23.4985 41.8983 23.6621 42.1229 23.7842C42.3524 23.9014 42.6332 23.96 42.9652 23.96C43.3802 23.96 43.7464 23.8721 44.0638 23.6963C44.3812 23.5205 44.6327 23.3057 44.8182 23.0518C45.0087 22.7979 45.1112 22.5513 45.1258 22.312L45.7045 22.9639C45.6703 23.1689 45.5775 23.396 45.4261 23.645C45.2748 23.894 45.0721 24.1333 44.8182 24.3628C44.5692 24.5874 44.2713 24.7754 43.9247 24.9268C43.5829 25.0732 43.1971 25.1465 42.7674 25.1465C42.2303 25.1465 41.7591 25.0415 41.3539 24.8315C40.9535 24.6216 40.641 24.3408 40.4164 23.9893C40.1966 23.6328 40.0868 23.2349 40.0868 22.7954C40.0868 22.3706 40.1698 21.9971 40.3358 21.6748C40.5018 21.3477 40.7411 21.0767 41.0536 20.8618C41.3661 20.6421 41.7421 20.4761 42.1815 20.3638C42.621 20.2515 43.1117 20.1953 43.6537 20.1953H45.2284ZM57.1962 23.4619V13.75H58.5585V25H57.3133L57.1962 23.4619ZM51.8641 21.1255V20.9717C51.8641 20.3662 51.9374 19.8169 52.0838 19.3237C52.2352 18.8257 52.4476 18.3984 52.7211 18.042C52.9994 17.6855 53.329 17.4121 53.7098 17.2217C54.0956 17.0264 54.5253 16.9287 54.9989 16.9287C55.4969 16.9287 55.9315 17.0166 56.3026 17.1924C56.6786 17.3633 56.996 17.6147 57.2547 17.9468C57.5184 18.2739 57.7259 18.6694 57.8773 19.1333C58.0287 19.5972 58.1337 20.1221 58.1922 20.708V21.3818C58.1385 21.9629 58.0336 22.4854 57.8773 22.9492C57.7259 23.4131 57.5184 23.8086 57.2547 24.1357C56.996 24.4629 56.6786 24.7144 56.3026 24.8901C55.9266 25.061 55.4872 25.1465 54.9842 25.1465C54.5204 25.1465 54.0956 25.0464 53.7098 24.8462C53.329 24.646 52.9994 24.3652 52.7211 24.0039C52.4476 23.6426 52.2352 23.2178 52.0838 22.7295C51.9374 22.2363 51.8641 21.7017 51.8641 21.1255ZM53.2264 20.9717V21.1255C53.2264 21.521 53.2655 21.8921 53.3436 22.2388C53.4266 22.5854 53.5536 22.8906 53.7245 23.1543C53.8954 23.418 54.1127 23.6255 54.3763 23.7769C54.64 23.9233 54.9549 23.9966 55.3212 23.9966C55.7704 23.9966 56.139 23.9014 56.4271 23.7109C56.7201 23.5205 56.9545 23.269 57.1302 22.9565C57.306 22.644 57.4427 22.3047 57.5404 21.9385V20.1733C57.4818 19.9048 57.3963 19.646 57.284 19.397C57.1766 19.1431 57.035 18.9185 56.8592 18.7231C56.6883 18.5229 56.4759 18.3643 56.222 18.2471C55.973 18.1299 55.6776 18.0713 55.3358 18.0713C54.9647 18.0713 54.6449 18.1494 54.3763 18.3057C54.1127 18.457 53.8954 18.667 53.7245 18.9355C53.5536 19.1992 53.4266 19.5068 53.3436 19.8584C53.2655 20.2051 53.2264 20.5762 53.2264 20.9717ZM63.9564 25.1465C63.4046 25.1465 62.9042 25.0537 62.4549 24.8682C62.0106 24.6777 61.6273 24.4116 61.305 24.0698C60.9877 23.728 60.7435 23.3228 60.5726 22.854C60.4017 22.3853 60.3163 21.8726 60.3163 21.3159V21.0083C60.3163 20.3638 60.4115 19.79 60.6019 19.2871C60.7923 18.7793 61.0511 18.3496 61.3783 17.998C61.7054 17.6465 62.0765 17.3804 62.4916 17.1997C62.9066 17.019 63.3363 16.9287 63.7806 16.9287C64.347 16.9287 64.8353 17.0264 65.2455 17.2217C65.6605 17.417 65.9999 17.6904 66.2635 18.042C66.5272 18.3887 66.7225 18.7988 66.8495 19.2725C66.9764 19.7412 67.0399 20.2539 67.0399 20.8105V21.4185H61.1219V20.3125H65.6849V20.21C65.6654 19.8584 65.5921 19.5166 65.4652 19.1846C65.3431 18.8525 65.1478 18.5791 64.8793 18.3643C64.6107 18.1494 64.2445 18.042 63.7806 18.042C63.473 18.042 63.1898 18.1079 62.931 18.2397C62.6722 18.3667 62.4501 18.5571 62.2645 18.811C62.079 19.0649 61.9349 19.375 61.8324 19.7412C61.7298 20.1074 61.6786 20.5298 61.6786 21.0083V21.3159C61.6786 21.6919 61.7298 22.0459 61.8324 22.3779C61.9398 22.7051 62.0936 22.9932 62.2938 23.2422C62.4989 23.4912 62.7455 23.6865 63.0336 23.8281C63.3265 23.9697 63.6586 24.0405 64.0296 24.0405C64.5082 24.0405 64.9134 23.9429 65.2455 23.7476C65.5775 23.5522 65.868 23.291 66.1171 22.9639L66.9374 23.6157C66.7665 23.8745 66.5492 24.1211 66.2855 24.3555C66.0218 24.5898 65.6971 24.7803 65.3114 24.9268C64.9305 25.0732 64.4789 25.1465 63.9564 25.1465ZM69.9696 18.6499V25H68.6073V17.0752H69.8963L69.9696 18.6499ZM69.6913 20.7373L69.0614 20.7153C69.0663 20.1733 69.1371 19.6729 69.2738 19.2139C69.4105 18.75 69.6131 18.3472 69.8817 18.0054C70.1503 17.6636 70.4847 17.3999 70.8851 17.2144C71.2855 17.0239 71.7494 16.9287 72.2767 16.9287C72.6478 16.9287 72.9896 16.9824 73.3021 17.0898C73.6146 17.1924 73.8856 17.356 74.1151 17.5806C74.3446 17.8052 74.5228 18.0933 74.6498 18.4448C74.7767 18.7964 74.8402 19.2212 74.8402 19.7192V25H73.4852V19.7852C73.4852 19.3701 73.4144 19.0381 73.2728 18.7891C73.1361 18.54 72.9408 18.3594 72.6869 18.2471C72.433 18.1299 72.1351 18.0713 71.7933 18.0713C71.3929 18.0713 71.0585 18.1421 70.7899 18.2837C70.5213 18.4253 70.3065 18.6206 70.1454 18.8696C69.9842 19.1187 69.8671 19.4043 69.7938 19.7266C69.7254 20.0439 69.6913 20.3809 69.6913 20.7373ZM74.8255 19.9902L73.9173 20.2686C73.9222 19.834 73.993 19.4165 74.1297 19.0161C74.2713 18.6157 74.474 18.2593 74.7377 17.9468C75.0062 17.6343 75.3358 17.3877 75.7264 17.207C76.1171 17.0215 76.5638 16.9287 77.0668 16.9287C77.4916 16.9287 77.8675 16.9849 78.1947 17.0972C78.5267 17.2095 78.805 17.3828 79.0296 17.6172C79.2591 17.8467 79.4325 18.1421 79.5497 18.5034C79.6669 18.8647 79.7254 19.2944 79.7254 19.7925V25H78.3631V19.7778C78.3631 19.3335 78.2923 18.9893 78.1507 18.7451C78.014 18.4961 77.8187 18.3228 77.5648 18.2251C77.3158 18.1226 77.0179 18.0713 76.6712 18.0713C76.3734 18.0713 76.1097 18.1226 75.8802 18.2251C75.6507 18.3276 75.4579 18.4692 75.3016 18.6499C75.1454 18.8257 75.0257 19.0283 74.9427 19.2578C74.8646 19.4873 74.8255 19.7314 74.8255 19.9902ZM81.4173 21.1255V20.957C81.4173 20.3857 81.5004 19.856 81.6664 19.3677C81.8324 18.8745 82.0716 18.4473 82.3841 18.0859C82.6966 17.7197 83.0751 17.4365 83.5194 17.2363C83.9637 17.0313 84.4618 16.9287 85.0135 16.9287C85.5702 16.9287 86.0707 17.0313 86.515 17.2363C86.9642 17.4365 87.3451 17.7197 87.6576 18.0859C87.975 18.4473 88.2167 18.8745 88.3827 19.3677C88.5487 19.856 88.6317 20.3857 88.6317 20.957V21.1255C88.6317 21.6968 88.5487 22.2266 88.3827 22.7148C88.2167 23.2031 87.975 23.6304 87.6576 23.9966C87.3451 24.3579 86.9667 24.6411 86.5223 24.8462C86.0829 25.0464 85.5848 25.1465 85.0282 25.1465C84.4715 25.1465 83.9711 25.0464 83.5267 24.8462C83.0824 24.6411 82.7015 24.3579 82.3841 23.9966C82.0716 23.6304 81.8324 23.2031 81.6664 22.7148C81.5004 22.2266 81.4173 21.6968 81.4173 21.1255ZM82.7723 20.957V21.1255C82.7723 21.521 82.8187 21.8945 82.9115 22.2461C83.0043 22.5928 83.1434 22.9004 83.329 23.1689C83.5194 23.4375 83.7562 23.6499 84.0394 23.8062C84.3226 23.9575 84.6522 24.0332 85.0282 24.0332C85.3993 24.0332 85.724 23.9575 86.0023 23.8062C86.2855 23.6499 86.5199 23.4375 86.7054 23.1689C86.891 22.9004 87.0301 22.5928 87.1229 22.2461C87.2206 21.8945 87.2694 21.521 87.2694 21.1255V20.957C87.2694 20.5664 87.2206 20.1978 87.1229 19.8511C87.0301 19.4995 86.8885 19.1895 86.6981 18.9209C86.5126 18.6475 86.2782 18.4326 85.995 18.2764C85.7167 18.1201 85.3895 18.042 85.0135 18.042C84.6424 18.042 84.3153 18.1201 84.0321 18.2764C83.7538 18.4326 83.5194 18.6475 83.329 18.9209C83.1434 19.1895 83.0043 19.4995 82.9115 19.8511C82.8187 20.1978 82.7723 20.5664 82.7723 20.957Z" fill="#F0F1F4"/>
<path d="M98.1001 16.5397C98.0372 16.5659 97.9801 16.6043 97.9319 16.6528C97.8838 16.7012 97.8456 16.7586 97.8195 16.8219C97.7934 16.8851 97.78 16.9529 97.78 17.0214L97.7801 22.9787C97.7801 23.1169 97.8347 23.2495 97.9319 23.3473C98.0292 23.4451 98.161 23.5 98.2986 23.5C98.4361 23.5 98.5679 23.4451 98.6652 23.3473L101.628 20.3687C101.676 20.3203 101.714 20.2628 101.741 20.1996C101.767 20.1363 101.78 20.0685 101.78 20C101.78 19.9316 101.767 19.8638 101.741 19.8005C101.714 19.7373 101.676 19.6798 101.628 19.6314L98.6652 16.6528C98.617 16.6043 98.5599 16.5659 98.497 16.5397C98.4341 16.5135 98.3666 16.5 98.2986 16.5C98.2305 16.5 98.163 16.5135 98.1001 16.5397Z" fill="#F5F4F7"/>
</svg>
